<svg xmlns="http://www.w3.org/2000/svg" viewBox="0 0 32 32" width="32" height="32">
  <defs>
    <linearGradient id="brandGradient" x1="0%" y1="0%" x2="100%" y2="100%">
      <stop offset="0%" style="stop-color:#2563eb;stop-opacity:1" />
      <stop offset="100%" style="stop-color:#7c3aed;stop-opacity:1" />
    </linearGradient>
  </defs>
  
  <!-- Background Circle -->
  <circle cx="16" cy="16" r="15" fill="url(#brandGradient)" stroke="#ffffff" stroke-width="1"/>
  
  <!-- Tools Icon -->
  <g fill="#ffffff" transform="translate(8, 8)">
    <!-- Wrench -->
    <path d="M12.5 2.5L10 5l1.5 1.5L9 9l-1.5-1.5L5 10l2.5 2.5L5 15l3 3 2.5-2.5L13 18l3-3-2.5-2.5L16 10l-3-3-2.5 2.5z" opacity="0.9"/>
    <!-- Screwdriver -->
    <path d="M2 2l4 4v8l-2 2v2h2l2-2h8l4-4-4-4H8L6 6V2H2z" opacity="0.7"/>
  </g>
  
  <!-- TFC Text -->
  <text x="16" y="26" text-anchor="middle" fill="#ffffff" font-family="Arial, sans-serif" font-size="6" font-weight="bold">TFC</text>
</svg>
